# xmcd
# 
# Track frame offsets:
#     150
#     17304
#     34828
#     53165
#     66557
#     83700
#     99737
#     116614
#     132181
#     147479
# 
# Disc length: 2099
# 
# Revision: 17
# Processed by: cddbd v1.5.2PL0 Copyright (c) Steve Scherf et al.
# Submitted via: fre:ac v1.0.31
# 
DISCID=8808310a
DTITLE=BRUNO MARS - Unorthodox Jukebox
DYEAR=2012
DGENRE=Rock
TTITLE0=Young Girls
TTITLE1=Locked Out Of Heaven
TTITLE2=Gorilla
TTITLE3=Treasure
TTITLE4=Moonshine
TTITLE5=When I Was Your Man
TTITLE6=Natalie
TTITLE7=Show Me
TTITLE8=Money Make Her Smile
TTITLE9=If I Knew
EXTD=YEAR: 2012
EXTT0=
EXTT1=
EXTT2=
EXTT3=
EXTT4=
EXTT5=
EXTT6=
EXTT7=
EXTT8=
EXTT9=
PLAYORDER=
